<?xml version="1.0" standalone="no"?>
<!DOCTYPE svg PUBLIC "-//W3C//DTD SVG 20010904//EN"
 "http://www.w3.org/TR/2001/REC-SVG-20010904/DTD/svg10.dtd">
<svg version="1.0" xmlns="http://www.w3.org/2000/svg"
 width="542.000000pt" height="542.000000pt" viewBox="0 0 542.000000 542.000000"
 preserveAspectRatio="xMidYMid meet">
<metadata>
Created by potrace 1.11, written by Peter Selinger 2001-2013
</metadata>
<g transform="translate(0.000000,542.000000) scale(0.100000,-0.100000)"
fill="#000000" stroke="none">
<path d="M2576 5185 c-81 -33 -130 -78 -170 -155 -34 -66 -39 -93 -42 -215 -1
-60 -3 -118 -3 -127 -1 -11 -12 -20 -28 -24 -73 -16 -228 -71 -313 -112 -340
-161 -606 -427 -773 -772 -126 -261 -177 -512 -168 -827 l1 -33 78 3 77 2 1
-45 c3 -79 13 -233 19 -280 31 -241 112 -534 200 -727 l33 -71 51 25 c28 14
54 24 57 21 4 -5 8 -21 19 -79 12 -68 81 -286 126 -399 51 -130 159 -342 176
-347 5 -2 60 30 121 71 104 69 112 73 118 53 9 -31 31 -81 70 -163 19 -39 34
-73 34 -76 0 -4 21 -41 106 -186 59 -101 194 -276 299 -387 l42 -45 76 79
c177 187 343 449 457 724 l32 77 36 -29 c39 -30 183 -121 192 -121 3 0 14 17
25 38 11 20 22 39 25 42 3 3 24 44 47 92 86 176 161 387 199 563 10 44 21 84
26 89 5 6 23 1 47 -12 21 -12 45 -22 53 -22 17 0 114 225 133 310 2 8 8 27 14
42 11 30 49 186 57 238 3 19 8 38 9 41 2 3 7 28 11 55 3 27 8 56 9 65 12 61
23 212 25 329 l0 36 79 -1 80 -1 -4 156 c-2 85 -6 164 -8 175 -3 11 -8 42 -11
69 -4 27 -14 77 -22 110 -8 34 -17 72 -20 86 -9 42 -95 251 -132 320 -175 324
-457 588 -782 730 -87 38 -220 84 -276 95 l-32 6 0 133 c-1 110 -4 142 -23
190 -29 79 -115 166 -193 195 -80 30 -182 28 -260 -4z"/>
</g>
</svg>
